Coordinates
version=1
nRows=10
nColumns=28
inDegrees=yes

Units are S.I. units (second, meters, Newtons, ...)
Angles are in degrees.

endheader
time	pelvis_tilt	pelvis_list	pelvis_rotation	pelvis_tx	pelvis_ty	pelvis_tz	hip_flexion_r	hip_adduction_r	hip_rotation_r	knee_angle_r	ankle_angle_r	subtalar_angle_r	mtp_angle_r	hip_flexion_l	hip_adduction_l	hip_rotation_l	knee_angle_l	socket_flexion	socket_adduction	socket_rotation	socket_tx	socket_ty	socket_tz	foot_flex	lumbar_extension	lumbar_bending	lumbar_rotation
      0.00000000	      1.13074343	     -5.62167618	     -8.77738235	     -0.86470926	      0.99334081	      0.29369469	    -26.77069514	      6.37746641	      2.94451652	     -3.65888054	     12.96491768	     -3.94264907	      4.47774915	     24.07145908	    -10.50137407	      1.32328393	     -1.15188584	      0.80428662	      1.45754284	      6.67090717	     -0.00970685	     -0.00213439	      0.01231071	     -0.43283035	    -12.39920948	      3.17434919	     11.21222935
      0.00416667	      1.08763176	     -5.64646737	     -8.68523894	     -0.85894551	      0.99256591	      0.29319388	    -26.92729871	      6.38901268	      2.98007815	     -3.84159509	     12.92573295	     -3.95429795	      4.47431888	     23.96350289	    -10.44778402	      1.33308006	     -1.20873414	      0.84928638	      1.47717822	      6.70889254	     -0.00885322	     -0.00246392	      0.01174300	     -0.51881019	    -12.24469346	      3.18660093	     11.21086456
      0.00833333	      1.02145485	     -5.72786147	     -8.58177024	     -0.85296020	      0.99187595	      0.29257295	    -26.91586840	      6.46439238	      2.80436835	     -4.33090993	     12.68391335	     -4.15667835	      4.44022135	     23.62524041	    -10.35549545	      1.32139680	     -1.07845178	      0.75390123	      1.36023179	      7.04511682	     -0.00978929	     -0.00296206	      0.01265768	     -1.10079554	    -12.11740586	      3.29434797	     11.17700320
      0.01250000	      0.98412163	     -5.75595770	     -8.49565970	     -0.84675043	      0.99110547	      0.29204926	    -27.05940148	      6.47935574	      2.84981809	     -4.57959042	     12.62665924	     -4.17373677	      4.43681487	     23.49785113	    -10.28425028	      1.30032160	     -1.15138720	      0.81285013	      1.38064627	      7.06405726	     -0.00878840	     -0.00339808	      0.01222383	     -1.17383583	    -11.95879277	      3.31630068	     11.17187239
      0.01666667	      0.94358142	     -5.84677303	     -8.54310889	     -0.84061414	      0.99058391	      0.29147247	    -26.88322197	      6.48828320	      2.63638013	     -5.45099835	     12.26496335	     -4.46494605	      4.40999209	     23.05948850	    -10.16928339	      1.14536789	     -1.01212548	      0.72133232	      1.17412788	      7.41663906	     -0.00969564	     -0.00396857	      0.01402298	     -1.76693002	    -11.89987164	      3.46724555	     11.11230074
      0.02083333	      0.90200634	     -5.87045410	     -8.43021028	     -0.83408472	      0.98982487	      0.29084028	    -27.02146026	      6.50096944	      2.70433695	     -5.72732902	     12.20762410	     -4.47626445	      4.41119313	     22.92040501	    -10.09780294	      1.11524928	     -1.08560546	      0.78250882	      1.19045841	      7.43987808	     -0.00883120	     -0.00440965	      0.01331706	     -1.83336940	    -11.73680507	      3.47453536	     11.10963643
      0.02500000	      0.92292108	     -5.78950440	     -8.70545794	     -0.82781264	      0.98963725	      0.29065805	    -26.70251467	      6.23591712	      2.49080650	     -6.96933714	     11.77412363	     -4.87632083	      4.58369536	     22.34334666	     -9.88990240	      0.40780184	     -0.94629109	      0.69207147	      0.99080413	      7.96392836	     -0.00964782	     -0.00468781	      0.01509370	     -2.25209391	    -11.75733952	      3.34003106	     11.10108228
      0.02916667	      0.88329062	     -5.81518516	     -8.58819372	     -0.82097790	      0.98888976	      0.29000179	    -26.85736711	      6.24864449	      2.57199117	     -7.23324170	     11.72314102	     -4.87283315	      4.59083682	     22.18151280	     -9.81138191	      0.40911172	     -1.02088482	      0.75649476	      0.99616547	      8.02878472	     -0.00875960	     -0.00534524	      0.01451356	     -2.35733858	    -11.55776181	      3.37219713	     11.11069999
      0.03333333	      1.02476286	     -5.43616994	     -9.09888237	     -0.81370664	      0.98905938	      0.29009604	    -26.75055387	      5.52921995	      2.42295524	     -8.28037315	     11.31734447	     -4.98959057	      5.78158831	     21.32406501	     -9.21901856	     -1.66560231	     -0.78599804	      0.61790223	      0.56338607	      9.67644930	     -0.00905990	     -0.00571728	      0.01780037	     -2.90831292	    -11.52302454	      2.83099382	     11.67639176
      0.03750000	      1.05398112	     -5.54495440	     -9.00359425	     -0.80712257	      0.98858158	      0.28936141	    -26.73269969	      5.59540808	      2.29591395	     -8.99618686	     10.87802786	     -5.04231373	      5.84824636	     21.05679748	     -9.18665502	     -1.71534275	     -0.82130392	      0.65264857	      0.53741504	      9.91981014	     -0.00833318	     -0.00649431	      0.01778379	     -3.33252160	    -11.52300131	      2.96383970	     11.61303343
